# xmcd CD database file
#
# Track frame offsets:
#	150
#	14091
#	32833
#	44298
#	54035
#	70295
#	80691
#	93423
#	109487
#	126127
#
# Disc length: 1907 seconds
#
# Revision: 1
# Processed by: cddbd v1.5.2PL0 Copyright (c) Steve Scherf et al.
# Submitted via: CDex 1.70beta2
#
DISCID=8607710a
DTITLE=BoC - Best of Country - D1
DYEAR=1900
DGENRE=Country
TTITLE0=Lynn Anderson-Rose Garden
TTITLE1=Faron Young-She Believes In Me
TTITLE2=Henson Cargill-Mamas Don't Let your Babies Grow Up to Be Cowboys
TTITLE3=Liz Anderson-I'm Walking The Floor Over You
TTITLE4=Roy Drusky-Almost Like A Song
TTITLE5=Lynn Anderson-I've Been Everywhere
TTITLE6=Skeeter Davis-Love Me Tender
TTITLE7=Sandy Posey-I Was Country When Country Wasn't Cool
TTITLE8=Faron Young-You Were Always On My Mind
TTITLE9=Lynn Anderson-Blue Bayou
EXTD=
EXTT0=
EXTT1=
EXTT2=
EXTT3=
EXTT4=
EXTT5=
EXTT6=
EXTT7=
EXTT8=
EXTT9=
PLAYORDER=
